<?xml version="1.0" standalone="no"?><!DOCTYPE svg PUBLIC "-//W3C//DTD SVG 1.1//EN" "http://www.w3.org/Graphics/SVG/1.1/DTD/svg11.dtd"><svg t="1717255015445" class="icon" viewBox="0 0 1024 1024" version="1.1" xmlns="http://www.w3.org/2000/svg" p-id="4306" width="32" height="32" xmlns:xlink="http://www.w3.org/1999/xlink"><path d="M892.8 129.6c-90.7-90.7-240.6-86.4-335 8L437.5 257.8l-6.2 6.4c-88.4 94.7-90.5 240-1.9 328.7 15.1 15.1 39.5 15.1 54.5 0 15.1-15.1 15.1-39.5 0-54.5-59.8-59.8-57-161.1 8-226l120.2-120.2 6-5.7c65.1-59.4 162-60.3 220-2.3 59.8 59.8 57 161.1-8 226L710 530.3l-3 3.4c-12 15.1-11 37.2 3 51.1 15.1 15.1 39.5 15.1 54.5 0l120.2-120.2 6.2-6.4c88.4-94.6 90.5-240 1.9-328.6z" p-id="4307" fill="#1296db"></path><path d="M538.5 429.3c-15.1 15.1-15.1 39.5 0 54.5 59.8 59.8 57 161.1-8 226L410.2 830.1l-6 5.7c-65.1 59.4-162 60.3-220 2.3-59.8-59.8-57-161.1 8-226l120.2-120.2 3-3.4c12-15.1 11-37.2-3-51.1-15.1-15.1-39.5-15.1-54.5 0L137.7 557.6l-6.2 6.4c-88.4 94.7-90.5 240-1.9 328.7 90.7 90.7 240.6 86.4 335-8L585 764.4l6.2-6.4c88.4-94.7 90.5-240 1.9-328.7-15.2-15-39.6-15-54.6 0z" p-id="4308" fill="#1296db"></path></svg>