<?xml version="1.0" standalone="no"?><!DOCTYPE svg PUBLIC "-//W3C//DTD SVG 1.1//EN" "http://www.w3.org/Graphics/SVG/1.1/DTD/svg11.dtd"><svg t="1717304434163" class="icon" viewBox="0 0 1024 1024" version="1.1" xmlns="http://www.w3.org/2000/svg" p-id="8410" xmlns:xlink="http://www.w3.org/1999/xlink" width="32" height="32"><path d="M512.146286 109.714286a36.571429 36.571429 0 0 1 35.986285 29.988571l0.585143 6.582857v87.113143c46.592 4.534857 92.16 17.408 134.582857 36.352l35.108572-49.005714a36.571429 36.571429 0 0 1 62.902857 36.864l-3.364571 5.705143-29.988572 41.691428c97.938286 63.414857 166.326857 158.72 166.326857 247.661715 0 151.332571-198.070857 320.950857-402.285714 320.950857-204.141714 0-402.285714-169.691429-402.285714-320.950857 0-93.988571 76.434286-195.072 183.296-258.194286l-28.891429-40.228572a36.571429 36.571429 0 0 1 55.149714-47.542857l4.388572 4.973715 35.913143 50.176a428.032 428.032 0 0 1 116.004571-28.525715V146.285714a36.571429 36.571429 0 0 1 36.571429-36.571428zM512 304.786286c-166.034286 0-329.142857 139.702857-329.142857 247.881143 0 108.105143 163.108571 247.808 329.142857 247.808s329.142857-139.629714 329.142857-247.808c0-108.251429-163.108571-247.954286-329.142857-247.954286z" p-id="8411"></path><path d="M512 394.166857a158.500571 158.500571 0 1 0 0 316.928A158.500571 158.500571 0 0 0 512 394.24z m0 73.142857a85.357714 85.357714 0 1 1 0 170.642286A85.357714 85.357714 0 0 1 512 467.382857z" p-id="8412"></path></svg>