<?xml version="1.0" standalone="no"?><!DOCTYPE svg PUBLIC "-//W3C//DTD SVG 1.1//EN" "http://www.w3.org/Graphics/SVG/1.1/DTD/svg11.dtd"><svg t="1716029009567" class="icon" viewBox="0 0 1024 1024" version="1.1" xmlns="http://www.w3.org/2000/svg" p-id="7422" xmlns:xlink="http://www.w3.org/1999/xlink" width="48" height="48"><path d="M761.35428 167.237923v773.085328L489.635996 771.236117a64.722348 64.722348 0 0 0-68.536343 0L151.346154 940.092099V167.237923h610.008126m22.768398-64.722347H128.577757C105.462633 102.515576 86.623806 124.937246 86.623806 152.559819v820.818059C86.623806 1002.61851 106.733964 1024 129.040059 1024a36.406321 36.406321 0 0 0 17.798646-4.7386l308.586907-193.126863 310.320542 193.126863a37.099774 37.099774 0 0 0 17.914221 4.7386c22.306095 0 42.416253-21.38149 42.416253-50.622122V152.559819c0-27.622573-18.838826-50.044244-41.95395-50.044243z" fill="#1A1A1A" p-id="7423"></path><path d="M909.637802 903.223476a27.738149 27.738149 0 0 1-27.738149-27.738149V55.476298H213.063536a27.738149 27.738149 0 0 1 0-55.476298h696.574266a27.738149 27.738149 0 0 1 27.738149 27.738149v847.747178a27.622573 27.622573 0 0 1-27.738149 27.738149z" fill="#1A1A1A" p-id="7424"></path></svg>