<?xml version="1.0" standalone="no"?><!DOCTYPE svg PUBLIC "-//W3C//DTD SVG 1.1//EN" "http://www.w3.org/Graphics/SVG/1.1/DTD/svg11.dtd"><svg t="1716129969582" class="icon" viewBox="0 0 1024 1024" version="1.1" xmlns="http://www.w3.org/2000/svg" p-id="4593" xmlns:xlink="http://www.w3.org/1999/xlink" width="48" height="48"><path d="M190 916c-17.673 0-32-14.327-32-32V764c0-17.673 14.327-32 32-32h120c17.673 0 32 14.327 32 32s-14.327 32-32 32h-88v88c0 17.673-14.327 32-32 32zM834 292H714c-17.673 0-32-14.327-32-32s14.327-32 32-32h88v-88c0-17.673 14.327-32 32-32s32 14.327 32 32v120c0 17.673-14.327 32-32 32zM511.997 605.349c-9.831 0-19.66-1.673-27.679-5.018L345.38 542.3c-14.021-5.87-22.38-17.027-22.38-29.85s8.361-23.978 22.363-29.839c12.226-5.117 26.288 0.645 31.406 12.872a23.94 23.94 0 0 1 1.861 8.687l124.177 51.866c4.29 1.788 14.095 1.789 18.397-0.005l124.167-51.861a23.944 23.944 0 0 1 1.86-8.688c5.12-12.227 19.18-17.991 31.406-12.87 14.002 5.862 22.361 17.017 22.362 29.839 0 12.823-8.358 23.979-22.36 29.842l-138.946 58.034c-8.026 3.348-17.863 5.022-27.696 5.022z"  p-id="4594"></path><path d="M511.996 712.98c-9.831 0-19.658-1.672-27.677-5.016l-138.938-58.03C331.359 644.063 323 632.903 323 620.072c0-12.832 8.359-23.992 22.361-29.854 12.229-5.123 26.288 0.644 31.407 12.868a23.934 23.934 0 0 1 1.862 8.717l124.176 51.865c4.29 1.789 14.097 1.789 18.398-0.006l124.165-51.859a23.95 23.95 0 0 1 1.862-8.717c5.12-12.227 19.184-17.989 31.407-12.868 14.001 5.863 22.36 17.023 22.36 29.854 0 12.83-8.359 23.99-22.36 29.854l-138.946 58.033c-8.026 3.348-17.863 5.021-27.696 5.021zM512 496.845c-7.12 0-17.702-0.874-27.682-5.037l-138.938-58.03c-14.02-5.869-22.38-17.024-22.38-29.847s8.359-23.979 22.362-29.841l138.944-58.043C494.29 311.876 504.877 311 512 311c7.123 0 17.71 0.876 27.696 5.048l138.925 58.035c14.02 5.87 22.379 17.025 22.379 29.848-0.001 12.823-8.36 23.978-22.362 29.839l-138.944 58.034c-9.993 4.167-20.574 5.041-27.694 5.041z m-113.54-92.916l104.347 43.583c1.18 0.492 4.459 1.333 9.193 1.333s8.013-0.841 9.205-1.337l104.335-43.579-104.348-43.59c-1.191-0.498-4.464-1.339-9.192-1.339s-8.001 0.841-9.19 1.337l-104.35 43.592z"  p-id="4595"></path><path d="M107 544c-17.673 0-32-14.327-32-32 0-58.98 11.559-116.214 34.355-170.11 22.012-52.042 53.517-98.772 93.64-138.896s86.854-71.628 138.896-93.64C395.787 86.559 453.02 75 512 75c126.564 0 246.814 54.825 329.918 150.417 11.595 13.338 10.182 33.549-3.155 45.145-13.339 11.595-33.551 10.182-45.146-3.155C722.675 185.803 620.029 139 512 139c-205.673 0-373 167.327-373 373 0 17.673-14.327 32-32 32zM512 949c-63.81 0-125.331-13.453-182.852-39.986-55.558-25.628-104.328-61.971-144.954-108.02-11.692-13.253-10.427-33.475 2.826-45.167s33.475-10.428 45.167 2.826C303.026 838.948 405.014 885 512 885c205.673 0 373-167.327 373-373 0-17.673 14.327-32 32-32s32 14.327 32 32c0 58.98-11.559 116.214-34.354 170.11-22.012 52.041-53.517 98.772-93.64 138.896s-86.854 71.628-138.896 93.64C628.214 937.441 570.98 949 512 949z"  p-id="4596"></path></svg>