<?xml version="1.0" standalone="no"?><!DOCTYPE svg PUBLIC "-//W3C//DTD SVG 1.1//EN" "http://www.w3.org/Graphics/SVG/1.1/DTD/svg11.dtd"><svg t="1716029319474" class="icon" viewBox="0 0 1024 1024" version="1.1" xmlns="http://www.w3.org/2000/svg" p-id="9331" xmlns:xlink="http://www.w3.org/1999/xlink" width="1em" height="1em"><path d="M782.7968 239.36a25.6 25.6 0 0 1-16.9472-6.4512 371.79904 371.79904 0 0 0-24.6784-19.968 25.6 25.6 0 0 1 30.72-40.96 412.0064 412.0064 0 0 1 28.0576 22.7328 25.6 25.6 0 0 1-16.9472 44.8z" fill="#FF64C8" p-id="9332"></path><path d="M519.68 935.3216a421.6832 421.6832 0 0 1-411.7504-324.7616 25.6 25.6 0 1 1 49.7664-11.8784A372.1728 372.1728 0 0 0 891.8016 512a368.0768 368.0768 0 0 0-80.6912-231.424 25.6 25.6 0 1 1 40.0896-31.8976A419.072 419.072 0 0 1 943.0016 512a423.7824 423.7824 0 0 1-423.3216 423.3216zM683.264 121.4464A423.7312 423.7312 0 0 0 154.2144 298.2912V233.6768a25.6 25.6 0 0 0-51.2 0v126.464a25.6 25.6 0 0 0 25.6 25.6h129.6384a25.6 25.6 0 0 0 0-51.2H192.5632a372.5312 372.5312 0 0 1 471.04-165.888 25.6 25.6 0 1 0 19.8144-47.2064z" fill="#585266" p-id="9333"></path><path d="M704.6656 547.84H487.0144a25.6 25.6 0 0 1-25.6-25.6V254.9248a25.6 25.6 0 1 1 51.2 0V496.64h192.0512a25.6 25.6 0 0 1 0 51.2z" fill="#585266" p-id="9334"></path></svg>