<?xml version="1.0" standalone="no"?><!DOCTYPE svg PUBLIC "-//W3C//DTD SVG 1.1//EN" "http://www.w3.org/Graphics/SVG/1.1/DTD/svg11.dtd"><svg t="1716028658163" class="icon" viewBox="0 0 1024 1024" version="1.1" xmlns="http://www.w3.org/2000/svg" p-id="5499" width="48" height="48" xmlns:xlink="http://www.w3.org/1999/xlink"><path d="M0 265.142857v713.142857h1024v-713.142857H0z m987.428571 676.571429H36.571429v-640h950.857142v640zM54.857143 228.571429h914.285714a18.285714 18.285714 0 0 0 0-36.571429H54.857143a18.285714 18.285714 0 0 0 0 36.571429zM109.714286 155.428571h804.571428a18.285714 18.285714 0 0 0 0-36.571428H109.714286a18.285714 18.285714 0 0 0 0 36.571428zM164.571429 82.285714h694.857142a18.285714 18.285714 0 0 0 0-36.571428H164.571429a18.285714 18.285714 0 0 0 0 36.571428z" fill="" p-id="5500"></path></svg>