<?xml version="1.0" standalone="no"?><!DOCTYPE svg PUBLIC "-//W3C//DTD SVG 1.1//EN" "http://www.w3.org/Graphics/SVG/1.1/DTD/svg11.dtd"><svg t="1716092000737" class="icon" viewBox="0 0 1024 1024" version="1.1" xmlns="http://www.w3.org/2000/svg" p-id="2368" xmlns:xlink="http://www.w3.org/1999/xlink" width="48" height="48"><path d="M871.161 954.102a9.049 9.049 0 0 1-8.728-6.651l-46.501-169.057-169.957-47.377a9.049 9.049 0 0 1-0.85-17.149l364.546-141.793a9.045 9.045 0 0 1 11.711 11.711L879.591 948.334a9.049 9.049 0 0 1-8.43 5.768zM677.014 720.883l148.714 41.455a9.058 9.058 0 0 1 6.296 6.316L872.635 916.3l124.429-319.904-320.05 124.487z m0 0" p-id="2369"></path><path d="M753.132 773.42a411.18 411.18 0 0 1-18.071 19.965l-3.804 3.982-4.276-3.619a367.484 367.484 0 0 0-80.844-52.486l-4.862-2.301 3.435-9.834c9.794-31.174 17.473-63.994 22.771-97.545l1.828-13.307a761.492 761.492 0 0 0 4.529-40.02l1.243-15.203c0.586-8.227 0.804-16.775 1.026-25.002l0.435-15.346h173.609l-0.296 6.285a409.918 409.918 0 0 1-14.033 87.518l27.567 8.779c10.291-37.205 15.817-76.369 15.817-116.804 0-241.842-196.741-438.584-438.623-438.584C198.741 69.899 2 266.68 2 508.483c0 241.808 196.741 438.583 438.584 438.583 132.236 0 250.982-58.803 331.465-151.631l-18.917-22.015zM175.753 195.808a404.982 404.982 0 0 1 143.159-79.053l21.929-6.837-15.895 16.703a287.082 287.082 0 0 0-24.488 29.642l-2.197 3.001a413.576 413.576 0 0 0-42.356 76.309l-6.284 16.044-5.812-2.811a339.203 339.203 0 0 1-68.056-43.856l-5.409-4.572 5.409-4.57zM31.351 487.944a409.551 409.551 0 0 1 114.762-264.357l3.876-4.02 4.272 3.653a368.574 368.574 0 0 0 80.736 52.412l3.29 7.021-1.718 5.185a673.089 673.089 0 0 0-22.803 97.624l-1.83 13.268c-1.863 13.116-3.363 26.534-4.718 42.178l-1.06 13.011c-0.58 8.807-0.836 17.724-1.094 27.628l-0.368 12.682H31.055l0.296-6.285z m118.637 309.384l-3.876-4.021A409.78 409.78 0 0 1 31.351 528.916l-0.296-6.291h173.643l0.368 12.688c0.218 9.867 0.514 18.783 1.094 27.629l1.282 15.203a671.716 671.716 0 0 0 4.495 40.098l1.83 13.268c5.369 33.986 13.082 66.846 22.803 97.584l3.291 9.904-4.752 2.23c-29.385 14.072-56.577 31.762-80.848 52.48l-4.273 3.619z m82.929-274.623h193.451v174.299l-5.738 0.219c-53.36 2.047-103.691 11.693-149.595 28.727l-5.956 2.264-1.829-6.029c-18.053-58.512-28.471-125.395-30.188-193.34l-0.145-6.14z m85.963 377.51a406.425 406.425 0 0 1-143.166-79.02l-5.409-4.605 5.482-4.533a340.89 340.89 0 0 1 67.948-43.746l7.747 2.336 4.456 10.82c12.063 28.107 26.355 53.801 42.361 76.354l2.158 2.955c2.449 3.402 5.042 5.924 7.529 9.102a294.171 294.171 0 0 0 10.05 12.135c2.304 2.666 4.606 5.924 6.909 8.373l15.934 16.629-21.999-6.8z m107.522 17.617l-7.128-1.393c-56.979-11.328-107.706-66.734-142.791-155.953l-2.23-5.666 5.699-2.119c42.947-15.895 90.129-24.996 140.237-27.043l6.213-0.256v192.43z m0-423.604H232.95l0.111-6.101c1.679-67.943 12.136-134.794 30.188-193.345l1.829-6.03 5.956 2.23c45.903 16.994 96.269 26.681 149.628 28.728l5.739 0.217v174.301z m0-202.625l-6.213-0.257c-50.143-2.08-97.329-11.147-140.237-27.08l-5.699-2.087 2.23-5.661c35.124-89.219 85.812-144.658 142.791-155.992l7.128-1.389v192.466z m304.855-71.964l3.877 4.021a409.85 409.85 0 0 1 114.8 264.356l0.29 6.286H676.615l-0.435-15.314c-0.18-8.338-0.52-16.669-1.026-24.996l-1.277-15.241c-1.132-13.195-2.671-26.68-4.534-40.02l-1.824-13.268a675.818 675.818 0 0 0-23.065-98.394l-3.179-9.022 4.862-2.303a369.26 369.26 0 0 0 80.844-52.452l4.276-3.653z m-168.93-102.922a405.97 405.97 0 0 1 143.165 79.058l5.409 4.566-5.409 4.567a342.582 342.582 0 0 1-67.943 43.824l-6.948 0.764-2.304-6.43-2.956-7.528a414.466 414.466 0 0 0-42.435-76.387l-2.158-2.962a278.851 278.851 0 0 0-24.488-29.602l-15.86-16.703 21.927 6.833zM454.839 99.099l7.166 1.39c56.979 11.332 107.673 66.777 142.796 155.991l2.226 5.666-5.7 2.08c-42.869 15.9-90.055 25.002-140.236 27.088l-6.251 0.257V99.099z m0 220.902l5.777-0.219c53.359-2.086 103.686-11.768 149.59-28.765l5.961-2.226 1.823 6.029c18.02 58.406 28.476 125.291 30.193 193.34l0.146 6.141h-193.49v-174.3z m-0.033 202.704H648.29l-0.106 6.139c-1.718 68.09-12.174 134.934-30.193 193.34l-1.823 6.029-5.961-2.264c-45.904-16.994-96.27-26.68-149.629-28.727l-5.771-0.219V522.705z m7.16 393.734l-7.16 1.393v-192.43l6.212 0.289c50.142 2.049 97.328 11.115 140.237 27.049l5.738 2.08-2.23 5.666c-35.085 89.219-85.819 144.625-142.797 155.953z m243.598-95.281A405.51 405.51 0 0 1 562.4 900.176l-21.962 6.838 15.86-16.629c8.114-8.445 16.117-18.203 24.522-29.682l2.157-2.994c16.156-22.699 30.411-48.502 43.494-78.98l5.187-13.346 5.777 2.816c24.522 11.918 47.438 26.68 68.089 43.822l5.449 4.529-5.409 4.608z" p-id="2370"></path></svg>