<?xml version="1.0" standalone="no"?><!DOCTYPE svg PUBLIC "-//W3C//DTD SVG 1.1//EN" "http://www.w3.org/Graphics/SVG/1.1/DTD/svg11.dtd"><svg t="1716092074435" class="icon" viewBox="0 0 1024 1024" version="1.1" xmlns="http://www.w3.org/2000/svg" p-id="3380" xmlns:xlink="http://www.w3.org/1999/xlink" width="48" height="48"><path d="M972.8 51.2v768H51.2V51.2h921.6m0-51.2H51.2C22.92224 0 0 22.92224 0 51.2v768c0 28.27776 22.92224 51.2 51.2 51.2h921.6c28.27776 0 51.2-22.92224 51.2-51.2V51.2c0-28.27776-22.92224-51.2-51.2-51.2z" fill="#649EFD" p-id="3381"></path><path d="M435.2 844.8c-14.08 0-25.6 11.52-25.6 25.6v102.4c0 14.08 11.52 25.6 25.6 25.6s25.6-11.52 25.6-25.6v-102.4c0-14.08-11.52-25.6-25.6-25.6zM588.8 844.8c-14.08 0-25.6 11.52-25.6 25.6v102.4c0 14.08 11.52 25.6 25.6 25.6s25.6-11.52 25.6-25.6v-102.4c0-14.08-11.52-25.6-25.6-25.6z" fill="#649EFD" p-id="3382"></path><path d="M742.4 971.05408H281.6c-14.08 0-25.6 11.52-25.6 25.6s11.52 25.6 25.6 25.6h460.8c14.08 0 25.6-11.52 25.6-25.6s-11.52-25.6-25.6-25.6zM310.38464 538.5984a20.48 20.48 0 0 1-13.70624-5.26336L195.67616 442.33728a20.46976 20.46976 0 0 1-0.15872-30.28992l99.99872-92.00128a20.48 20.48 0 0 1 28.34944 0.5888l9.99936 9.99936a20.46976 20.46976 0 0 1-0.6912 29.6192L259.99872 426.9312l72.99072 64.88064a20.48 20.48 0 0 1 2.24256 28.27776l-9.00096 10.99776a20.46464 20.46464 0 0 1-15.8464 7.51104zM471.38304 544.59904a20.43904 20.43904 0 0 1-10.53696-2.9184l-9.99936-6.00064a20.48 20.48 0 0 1-7.32672-27.57632l105.99936-188.99968a20.46976 20.46976 0 0 1 28.40064-7.54176l9.99936 6.00064a20.49024 20.49024 0 0 1 7.33184 27.58144l-106.00448 189.0048a20.48512 20.48512 0 0 1-17.86368 10.44992zM730.38336 538.5984a20.46464 20.46464 0 0 1-15.85152-7.51104l-9.00096-10.99776a20.49024 20.49024 0 0 1 2.24256-28.27776l72.99072-64.88064L707.584 360.25856a20.49024 20.49024 0 0 1-0.68608-29.6192l9.99936-9.99936a20.46464 20.46464 0 0 1 28.34432-0.5888l99.99872 92.00128a20.47488 20.47488 0 0 1-0.1536 30.28992l-101.00224 90.99776a20.45952 20.45952 0 0 1-13.70112 5.25824z" fill="#649EFD" p-id="3383"></path></svg>